<?xml version="1.0" encoding="utf-8"?>
<!-- Generator: Adobe Illustrator 24.3.0, SVG Export Plug-In . SVG Version: 6.00 Build 0)  -->
<svg version="1.1" id="Layer_1" xmlns="http://www.w3.org/2000/svg" xmlns:xlink="http://www.w3.org/1999/xlink" x="0px" y="0px"
	 viewBox="0 0 300.2 67.3" style="enable-background:new 0 0 300.2 67.3;" xml:space="preserve">
<style type="text/css">
	.st0{clip-path:url(#SVGID_2_);fill:#4F5144;}
	.st1{clip-path:url(#SVGID_2_);fill:#13253E;}
	.st2{clip-path:url(#SVGID_2_);}
	.st3{clip-path:url(#SVGID_2_);fill:#ADC957;}
</style>
<g>
	<defs>
		<rect id="SVGID_1_" y="0" width="300.2" height="67.3"/>
	</defs>
	<clipPath id="SVGID_2_">
		<use xlink:href="#SVGID_1_"  style="overflow:visible;"/>
	</clipPath>
	<path class="st0" d="M87.6,54.9c0.7,0,1.3,0.1,1.8,0.3c0.5,0.2,1,0.4,1.3,0.7c0.3,0.3,0.6,0.6,0.8,0.9c0.2,0.3,0.3,0.6,0.3,0.9
		c0,0.1,0,0.2-0.1,0.3c-0.1,0.1-0.2,0.1-0.3,0.1h-1.1c-0.2,0-0.3,0-0.4-0.1c-0.1-0.1-0.2-0.2-0.2-0.3c-0.2-0.3-0.4-0.5-0.7-0.7
		c-0.3-0.2-0.8-0.3-1.4-0.3c-0.3,0-0.5,0-0.8,0.1c-0.2,0.1-0.4,0.1-0.6,0.2c-0.2,0.1-0.3,0.2-0.4,0.4c-0.1,0.2-0.2,0.3-0.2,0.5
		c0,0.2,0,0.4,0.1,0.6c0.1,0.1,0.3,0.3,0.5,0.4c0.2,0.1,0.5,0.2,0.9,0.3c0.4,0.1,0.8,0.2,1.4,0.3c0.6,0.1,1.1,0.3,1.6,0.5
		c0.4,0.2,0.8,0.4,1.1,0.6c0.3,0.2,0.5,0.5,0.6,0.9s0.2,0.7,0.2,1.1c0,0.5-0.1,0.9-0.3,1.3c-0.2,0.4-0.5,0.7-0.9,1
		c-0.4,0.3-0.8,0.5-1.4,0.7C89,65.9,88.4,66,87.7,66c-0.6,0-1.1-0.1-1.6-0.2c-0.5-0.1-1-0.3-1.4-0.6c-0.4-0.3-0.7-0.6-1-0.9
		c-0.2-0.4-0.4-0.8-0.4-1.2c0-0.1,0-0.2,0.1-0.3c0.1-0.1,0.2-0.1,0.3-0.1h1.1c0.2,0,0.3,0,0.4,0.1s0.2,0.2,0.2,0.3
		c0.1,0.1,0.2,0.3,0.3,0.4c0.1,0.1,0.2,0.2,0.4,0.4c0.2,0.1,0.4,0.2,0.7,0.3c0.3,0.1,0.6,0.1,1,0.1c0.3,0,0.6,0,0.9-0.1
		c0.3,0,0.5-0.1,0.8-0.2c0.2-0.1,0.4-0.2,0.5-0.4c0.1-0.2,0.2-0.4,0.2-0.6c0-0.2-0.1-0.4-0.2-0.6c-0.1-0.1-0.4-0.3-0.7-0.4
		c-0.3-0.1-0.7-0.2-1.1-0.3c-0.4-0.1-0.9-0.2-1.5-0.4c-0.5-0.1-1-0.3-1.3-0.4c-0.4-0.2-0.7-0.4-0.9-0.6s-0.4-0.5-0.6-0.9
		c-0.1-0.3-0.2-0.7-0.2-1.2c0-0.5,0.1-0.9,0.3-1.3c0.2-0.4,0.5-0.7,0.8-1c0.4-0.3,0.8-0.5,1.3-0.7C86.5,55,87.1,54.9,87.6,54.9"/>
	<path class="st0" d="M107.3,59.1c0-0.6,0.1-1.1,0.3-1.6c0.2-0.5,0.5-0.9,0.8-1.3c0.4-0.4,0.8-0.7,1.4-0.9c0.6-0.2,1.2-0.3,2-0.3
		c0.7,0,1.4,0.1,1.9,0.3c0.6,0.2,1,0.5,1.4,0.9c0.4,0.4,0.6,0.8,0.8,1.3c0.2,0.5,0.3,1,0.3,1.6c0,0.2,0,0.4,0,0.6c0,0.2,0,0.5,0,0.7
		s0,0.5,0,0.7c0,0.2,0,0.5,0,0.6c0,0.6-0.1,1.1-0.3,1.6c-0.2,0.5-0.5,0.9-0.8,1.3c-0.4,0.4-0.8,0.7-1.4,0.9c-0.6,0.2-1.2,0.3-2,0.3
		c-0.8,0-1.4-0.1-2-0.3c-0.6-0.2-1-0.5-1.4-0.9c-0.4-0.4-0.6-0.8-0.8-1.3c-0.2-0.5-0.3-1-0.3-1.6c0-0.2,0-0.4,0-0.6
		c0-0.2,0-0.5,0-0.7s0-0.5,0-0.7C107.3,59.5,107.3,59.3,107.3,59.1 M114.2,59.2c0-0.7-0.3-1.3-0.7-1.7c-0.4-0.4-1-0.6-1.7-0.6
		c-0.7,0-1.3,0.2-1.7,0.6c-0.4,0.4-0.7,1-0.7,1.7c0,0.4,0,0.8,0,1.3c0,0.5,0,0.9,0,1.3c0,0.7,0.3,1.3,0.7,1.7c0.4,0.4,1,0.6,1.7,0.6
		c0.7,0,1.3-0.2,1.7-0.6c0.4-0.4,0.7-1,0.7-1.7c0-0.4,0-0.8,0-1.3C114.3,60,114.3,59.6,114.2,59.2"/>
	<path class="st0" d="M139.2,63.9c0.1,0,0.2,0,0.3,0.1c0.1,0.1,0.1,0.2,0.1,0.3v1.1c0,0.1,0,0.2-0.1,0.3c-0.1,0.1-0.2,0.1-0.3,0.1
		h-6.7c-0.1,0-0.2,0-0.3-0.1s-0.1-0.2-0.1-0.3v-9.9c0-0.1,0-0.2,0.1-0.3c0.1-0.1,0.2-0.1,0.3-0.1h1.2c0.1,0,0.2,0,0.3,0.1
		c0.1,0.1,0.1,0.2,0.1,0.3v8.4H139.2z"/>
	<path class="st0" d="M163,55.1c0.1,0,0.2,0,0.3,0.1c0.1,0.1,0.1,0.2,0.1,0.3v6.3c0,0.6-0.1,1.2-0.3,1.7c-0.2,0.5-0.5,0.9-0.8,1.3
		c-0.4,0.4-0.8,0.7-1.4,0.8c-0.6,0.2-1.2,0.3-1.9,0.3c-0.7,0-1.4-0.1-1.9-0.3c-0.5-0.2-1-0.5-1.4-0.8c-0.4-0.4-0.6-0.8-0.8-1.3
		c-0.2-0.5-0.3-1.1-0.3-1.7v-6.3c0-0.1,0-0.2,0.1-0.3s0.2-0.1,0.3-0.1h1.2c0.1,0,0.2,0,0.3,0.1c0.1,0.1,0.1,0.2,0.1,0.3v6.2
		c0,0.4,0.1,0.8,0.2,1.1c0.1,0.3,0.3,0.5,0.5,0.7c0.2,0.2,0.4,0.3,0.7,0.4c0.3,0.1,0.6,0.1,0.9,0.1c0.3,0,0.7,0,0.9-0.1
		c0.3-0.1,0.5-0.2,0.7-0.4c0.2-0.2,0.4-0.4,0.5-0.7c0.1-0.3,0.2-0.7,0.2-1.1v-6.2c0-0.1,0-0.2,0.1-0.3c0.1-0.1,0.2-0.1,0.3-0.1H163z
		"/>
	<path class="st0" d="M186.6,55.1c0.1,0,0.2,0,0.3,0.1c0.1,0.1,0.1,0.2,0.1,0.3v1.1c0,0.1,0,0.2-0.1,0.3c-0.1,0.1-0.2,0.1-0.3,0.1
		h-2.8v8.4c0,0.1,0,0.2-0.1,0.3c-0.1,0.1-0.2,0.1-0.3,0.1h-1.2c-0.1,0-0.2,0-0.3-0.1c-0.1-0.1-0.1-0.2-0.1-0.3V57H179
		c-0.1,0-0.2,0-0.3-0.1c-0.1-0.1-0.1-0.2-0.1-0.3v-1.1c0-0.1,0-0.2,0.1-0.3c0.1-0.1,0.2-0.1,0.3-0.1H186.6z"/>
	<path class="st0" d="M202.8,65.8c-0.1,0-0.2,0-0.3-0.1c-0.1-0.1-0.1-0.2-0.1-0.3v-9.9c0-0.1,0-0.2,0.1-0.3c0.1-0.1,0.2-0.1,0.3-0.1
		h1.2c0.1,0,0.2,0,0.3,0.1c0.1,0.1,0.1,0.2,0.1,0.3v9.9c0,0.1,0,0.2-0.1,0.3c-0.1,0.1-0.2,0.1-0.3,0.1H202.8z"/>
	<path class="st0" d="M220.2,59.1c0-0.6,0.1-1.1,0.3-1.6c0.2-0.5,0.5-0.9,0.8-1.3c0.4-0.4,0.8-0.7,1.4-0.9c0.6-0.2,1.2-0.3,2-0.3
		c0.7,0,1.4,0.1,1.9,0.3c0.6,0.2,1,0.5,1.4,0.9c0.4,0.4,0.6,0.8,0.8,1.3c0.2,0.5,0.3,1,0.3,1.6c0,0.2,0,0.4,0,0.6c0,0.2,0,0.5,0,0.7
		s0,0.5,0,0.7c0,0.2,0,0.5,0,0.6c0,0.6-0.1,1.1-0.3,1.6c-0.2,0.5-0.5,0.9-0.8,1.3c-0.4,0.4-0.8,0.7-1.4,0.9c-0.6,0.2-1.2,0.3-2,0.3
		c-0.8,0-1.4-0.1-2-0.3c-0.6-0.2-1-0.5-1.4-0.9c-0.4-0.4-0.6-0.8-0.8-1.3c-0.2-0.5-0.3-1-0.3-1.6c0-0.2,0-0.4,0-0.6
		c0-0.2,0-0.5,0-0.7s0-0.5,0-0.7C220.2,59.5,220.2,59.3,220.2,59.1 M227.2,59.2c0-0.7-0.3-1.3-0.7-1.7c-0.4-0.4-1-0.6-1.7-0.6
		c-0.7,0-1.3,0.2-1.7,0.6c-0.4,0.4-0.7,1-0.7,1.7c0,0.4,0,0.8,0,1.3c0,0.5,0,0.9,0,1.3c0,0.7,0.3,1.3,0.7,1.7c0.4,0.4,1,0.6,1.7,0.6
		c0.7,0,1.3-0.2,1.7-0.6c0.4-0.4,0.7-1,0.7-1.7c0-0.4,0-0.8,0-1.3C227.2,60,227.2,59.6,227.2,59.2"/>
	<path class="st0" d="M252,65.8c-0.2,0-0.3,0-0.4-0.1c-0.1-0.1-0.2-0.2-0.2-0.2l-4.3-6.4v6.3c0,0.1,0,0.2-0.1,0.3
		c-0.1,0.1-0.2,0.1-0.3,0.1h-1.2c-0.1,0-0.2,0-0.3-0.1c-0.1-0.1-0.1-0.2-0.1-0.3v-9.9c0-0.1,0-0.2,0.1-0.3c0.1-0.1,0.2-0.1,0.3-0.1
		h1.1c0.2,0,0.3,0,0.4,0.1c0.1,0.1,0.2,0.2,0.2,0.2l4.3,6.4v-6.3c0-0.1,0-0.2,0.1-0.3c0.1-0.1,0.2-0.1,0.3-0.1h1.2
		c0.1,0,0.2,0,0.3,0.1c0.1,0.1,0.1,0.2,0.1,0.3v9.9c0,0.1,0,0.2-0.1,0.3c-0.1,0.1-0.2,0.1-0.3,0.1H252z"/>
	<path class="st0" d="M273.3,54.9c0.7,0,1.3,0.1,1.8,0.3c0.5,0.2,1,0.4,1.3,0.7c0.3,0.3,0.6,0.6,0.8,0.9c0.2,0.3,0.3,0.6,0.3,0.9
		c0,0.1,0,0.2-0.1,0.3c-0.1,0.1-0.2,0.1-0.3,0.1H276c-0.2,0-0.3,0-0.4-0.1c-0.1-0.1-0.2-0.2-0.2-0.3c-0.2-0.3-0.4-0.5-0.7-0.7
		c-0.3-0.2-0.8-0.3-1.4-0.3c-0.3,0-0.5,0-0.8,0.1c-0.2,0.1-0.4,0.1-0.6,0.2c-0.2,0.1-0.3,0.2-0.4,0.4c-0.1,0.2-0.2,0.3-0.2,0.5
		c0,0.2,0,0.4,0.1,0.6c0.1,0.1,0.3,0.3,0.5,0.4c0.2,0.1,0.5,0.2,0.9,0.3c0.4,0.1,0.8,0.2,1.4,0.3c0.6,0.1,1.1,0.3,1.6,0.5
		c0.4,0.2,0.8,0.4,1.1,0.6c0.3,0.2,0.5,0.5,0.6,0.9s0.2,0.7,0.2,1.1c0,0.5-0.1,0.9-0.3,1.3c-0.2,0.4-0.5,0.7-0.9,1
		c-0.4,0.3-0.8,0.5-1.4,0.7c-0.6,0.2-1.2,0.2-1.9,0.2c-0.6,0-1.1-0.1-1.6-0.2s-1-0.3-1.4-0.6c-0.4-0.3-0.7-0.6-1-0.9
		c-0.2-0.4-0.4-0.8-0.4-1.2c0-0.1,0-0.2,0.1-0.3c0.1-0.1,0.2-0.1,0.3-0.1h1.1c0.2,0,0.3,0,0.4,0.1s0.2,0.2,0.2,0.3
		c0.1,0.1,0.2,0.3,0.3,0.4c0.1,0.1,0.2,0.2,0.4,0.4c0.2,0.1,0.4,0.2,0.7,0.3c0.3,0.1,0.6,0.1,1,0.1c0.3,0,0.6,0,0.9-0.1
		c0.3,0,0.5-0.1,0.8-0.2c0.2-0.1,0.4-0.2,0.5-0.4c0.1-0.2,0.2-0.4,0.2-0.6c0-0.2-0.1-0.4-0.2-0.6c-0.1-0.1-0.4-0.3-0.7-0.4
		c-0.3-0.1-0.7-0.2-1.1-0.3c-0.4-0.1-0.9-0.2-1.5-0.4c-0.5-0.1-1-0.3-1.3-0.4c-0.4-0.2-0.7-0.4-0.9-0.6s-0.4-0.5-0.6-0.9
		c-0.1-0.3-0.2-0.7-0.2-1.2c0-0.5,0.1-0.9,0.3-1.3c0.2-0.4,0.5-0.7,0.8-1c0.4-0.3,0.8-0.5,1.3-0.7C272.2,55,272.7,54.9,273.3,54.9"
		/>
	<path class="st1" d="M108.2,41.3c-1.9,1.5-5.3,3.7-11,3.7c-2.1,0-7.9-0.3-12.4-5c-4.7-5-5-11.6-5-13.7c0-1.8,0.2-6.8,3.3-11.3
		c1.8-2.6,5.9-7.1,14-7.1c6.6,0,10.7,3,12.5,4.9c3.4,3.5,5.3,9.2,5.3,14C114.9,32,112.5,37.7,108.2,41.3 M103.9,18.4
		c-0.4-0.6-1.5-1.8-3.4-2.6c-1.5-0.6-2.8-0.6-3.4-0.6c-1.9,0-3.3,0.6-3.9,1c-3.5,2-4.8,6.3-4.8,10c0,4.8,1.5,7.3,2.9,8.9
		c1.5,1.6,3.6,2.5,5.9,2.5c1.1,0,3.9-0.3,6.1-2.6c2-2.1,2.7-4.9,2.8-7.7C106.2,22.8,104.9,19.8,103.9,18.4"/>
	<path class="st1" d="M145.1,43.9v-3.2c-0.9,0.8-1.7,1.4-2.1,1.7c-3.3,2.2-6.8,2.3-8.2,2.3c-1.2,0-3.8-0.1-6.7-1.5
		c-6.4-3.1-9-10.1-9-16.8c0-2.6,0.5-11.9,8.6-16.5c1.4-0.8,4.4-2.2,8.6-2.2c6.6,0,10.6,3.1,12.4,4.7c1.2,1.1,2,2.1,3,3.4l-6.6,4
		c-0.1-0.2-1.1-1.8-2.2-2.8c-2.2-2-4.9-2.1-5.9-2.1c-0.6,0-3,0-4.8,1.2c-2.1,1.3-4.4,4.4-4.4,10c0,0.7,0,5.7,2.4,8.6
		c0.9,1.1,2.1,1.7,2.5,1.9c0.6,0.3,2.2,0.9,4.2,0.9c0.6,0,1.7,0,3-0.4c0.7-0.2,2.8-1.1,3.9-3.2c0.5-1.1,0.7-2.6,0.7-2.9h-7.8v-6.7
		h15.2v19.5H145.1z"/>
	<polygon class="st1" points="208.3,43.9 199.3,43.9 193,21.5 186.6,43.9 177.6,43.9 168.7,8.9 177.5,8.9 182.6,33 189,8.9 
		196.8,8.9 203.3,33 208.4,8.9 217.2,8.9 	"/>
	<polygon class="st1" points="220.6,43.9 220.6,8.9 246.5,8.9 246.5,15.6 229.4,15.6 229.4,22 245.4,22 245.4,28.7 229.4,28.7 
		229.4,37 248.1,37 248.1,43.9 	"/>
	<path class="st1" d="M278.6,41.7c-2.9,1.9-6.3,2.2-9.6,2.2h-16.3v-35h14.4c0.9,0,1.9,0,2.8,0c3.6,0.1,7.5,0.6,9.9,3.8
		c0.7,0.9,1.7,2.5,1.7,5.2c0,4.6-3,6.5-4.6,7.2c-0.8,0.3-1.3,0.5-2.9,0.8c0.5,0,0.9,0.1,1.4,0.2c4.1,0.7,5.8,2.6,6.7,4.4
		c0.3,0.6,0.8,1.9,0.8,3.6C282.8,35.7,282.3,39.3,278.6,41.7 M270.6,15.7c-0.4-0.1-1-0.2-2-0.2H261v7.3h6.6c0,0,1.3,0,2-0.1
		c2-0.3,2.6-1.2,2.9-2c0.1-0.2,0.3-0.8,0.3-1.6C272.8,18.1,272.7,16.3,270.6,15.7 M271.5,29.4c-0.6-0.2-1.3-0.3-2.8-0.3H261v8.5h6.1
		c3.1,0,4.7-0.3,5.8-1.5c0.4-0.4,0.9-1.2,0.9-2.7C273.9,30.7,272.4,29.7,271.5,29.4"/>
	<path class="st2" d="M292.5,11.2c0.1,0,0.1,0,0.2,0.1c0.1,0.1,0.1,0.1,0.1,0.2v0.4c0,0.1,0,0.1-0.1,0.2c-0.1,0.1-0.1,0.1-0.2,0.1
		h-1.9v6c0,0.1,0,0.1-0.1,0.2c-0.1,0.1-0.1,0.1-0.2,0.1h-0.4c-0.1,0-0.1,0-0.2-0.1c-0.1-0.1-0.1-0.1-0.1-0.2v-6h-1.9
		c-0.1,0-0.1,0-0.2-0.1c-0.1-0.1-0.1-0.1-0.1-0.2v-0.4c0-0.1,0-0.1,0.1-0.2s0.1-0.1,0.2-0.1H292.5z"/>
	<path class="st2" d="M297,15.6l2.1-4c0-0.1,0.1-0.2,0.2-0.2c0.1-0.1,0.2-0.1,0.3-0.1h0.4c0.1,0,0.1,0,0.2,0.1
		c0.1,0.1,0.1,0.1,0.1,0.2v6.6c0,0.1,0,0.1-0.1,0.2c-0.1,0.1-0.1,0.1-0.2,0.1h-0.4c-0.1,0-0.1,0-0.2-0.1c-0.1-0.1-0.1-0.1-0.1-0.2
		v-4.9l-1.6,3.1c-0.1,0.1-0.1,0.2-0.2,0.2c-0.1,0.1-0.1,0.1-0.2,0.1h-0.4c-0.1,0-0.2,0-0.2-0.1c-0.1-0.1-0.1-0.1-0.2-0.2l-1.6-3.1
		v4.9c0,0.1,0,0.1-0.1,0.2c-0.1,0.1-0.1,0.1-0.2,0.1h-0.4c-0.1,0-0.1,0-0.2-0.1c-0.1-0.1-0.1-0.1-0.1-0.2v-6.6c0-0.1,0-0.1,0.1-0.2
		c0.1-0.1,0.1-0.1,0.2-0.1h0.4c0.1,0,0.2,0,0.3,0.1c0.1,0.1,0.1,0.1,0.2,0.2L297,15.6z"/>
	<path class="st3" d="M60.2,13.1c-0.7-3.1-3.5-6.7-13.5-4.2c-5.2,1.3-10,3.7-14.2,7c-6.3,4.9-15.8,13.9-20.1,26.4
		C5.6,61.9,23.4,61.5,35,52.4S52.6,35.3,55.5,22c0.2-0.8,1.4-0.9,1.7-0.1l0.7,1.7c0,0,2.7,11.8-14.5,30.1C26.8,71.1,7.5,69.8,2.8,61
		c-4.2-8-4.3-15.4,3.5-29c7.7-13.5,18.3-21.2,27.4-26.7c9.6-5.9,38.1-10.8,28.4,8.1C61.7,14.3,60.4,14.1,60.2,13.1"/>
	<path class="st1" d="M48.7,29.8c0,0-9.1,5.1-17.2,6.7S23,33,22.8,31.8c0,0-2,5.2,0,9.6C24.7,45.7,34.4,49.4,48.7,29.8"/>
	<polygon class="st3" points="48.2,24.4 58,18.6 63.8,28.4 	"/>
</g>
</svg>
